# Blender 3.1.0
# www.blender.org
mtllib leftarm.mtl
o leftarm
v -0.345901 1.631765 -1.487904
v -0.385083 1.634415 -0.958410
v -0.351952 1.280483 -1.628304
v -0.392496 1.212962 -1.080418
v -0.354978 1.104842 -1.698503
v -0.396202 1.002235 -1.141422
v 0.000290 1.630475 -1.462600
v -0.038893 1.633124 -0.933106
v -0.034280 1.211626 -1.054235
v 0.006263 1.279148 -1.602121
v 0.009250 1.103484 -1.671881
v -0.031974 1.000877 -1.114800
vn -0.6267 0.2096 -0.1462
vn -0.6274 0.2035 -0.1388
vn -0.0238 -0.7413 1.0467
vn 0.0223 0.9539 -0.9743
vn 0.0009 1.8018 -0.0034
s 0
usemtl majka
f 4//1 2//1 1//1 3//1
f 6//2 4//2 3//2 5//2
f 4//3 6//3 12//3 9//3
f 5//4 3//4 10//4 11//4
f 2//3 4//3 9//3 8//3
f 3//4 1//4 7//4 10//4
f 2//5 8//5 7//5 1//5
