# Blender 3.1.0
# www.blender.org
mtllib leftfoot.mtl
o leftfoot
v 0.348907 -6.443260 -0.900802
v 0.348907 -6.443260 -0.229524
v -0.348904 -6.443260 -0.229524
v -0.348903 -6.443260 -0.900802
v 0.368472 -5.862271 -0.959584
v 0.368472 -5.862271 -0.190574
v -0.368525 -5.862271 -0.190574
v -0.368525 -5.862271 -0.959584
vn -0.0000 -1.8018 -0.0000
vn -0.0000 -0.2823 -1.1352
vn 0.6333 -0.1711 -0.0000
vn -0.0000 -0.1883 1.1431
vn -0.6333 -0.1716 -0.0000
s 0
usemtl STANI
f 1//1 2//1 3//1 4//1
f 5//2 1//2 4//2 8//2
f 1//3 5//3 6//3 2//3
f 2//4 6//4 7//4 3//4
f 3//5 7//5 8//5 4//5
