# Blender 3.1.0
# www.blender.org
mtllib righthand.mtl
o righthand
v 0.355693 -1.753020 1.698388
v 0.362808 -1.624271 2.229282
v -0.331349 -1.626853 2.239212
v -0.338465 -1.755601 1.708318
v 0.361539 -0.480756 1.408700
v 0.368901 -0.347535 1.958034
v -0.349367 -0.350206 1.968309
v -0.356729 -0.483427 1.418975
vn 0.0016 -1.7807 0.1757
vn -0.0045 -0.6055 -1.0825
vn 0.6359 -0.0370 -0.0242
vn 0.0045 0.5692 1.0905
vn -0.6356 -0.0546 0.0332
s 0
usemtl Material
f 1//1 2//1 3//1 4//1
f 5//2 1//2 4//2 8//2
f 1//3 5//3 6//3 2//3
f 2//4 6//4 7//4 3//4
f 3//5 7//5 8//5 4//5
