# Blender 3.1.0
# www.blender.org
mtllib rightupleg.mtl
o rightupleg
v -0.486131 -1.747655 0.021035
v -0.486132 -1.747655 1.106738
v 0.486135 -1.747655 1.106739
v 0.486136 -1.747655 0.021035
v 0.437086 -3.514469 0.065859
v 0.437086 -3.514469 1.042082
v -0.437139 -3.514469 1.042082
v -0.437139 -3.514469 0.065858
vn -0.6342 -0.1411 -0.0000
vn -0.0000 -0.1032 1.1475
vn 0.6342 -0.1412 -0.0000
vn -0.0000 1.8018 -0.0000
vn -0.0000 -0.0716 -1.1485
s 0
usemtl STANI
f 7//1 2//1 1//1 8//1
f 6//2 3//2 2//2 7//2
f 5//3 4//3 3//3 6//3
f 4//4 1//4 2//4 3//4
f 4//5 5//5 8//5 1//5
